<svg xmlns="http://www.w3.org/2000/svg" width="200" height="200" viewBox="0 0 48 48"><path fill="#37474F" d="M16.458 2.987c-.212.007-.441.086-.701.29-.635-.245-1.251-.33-1.802.168-.852-.109-1.128.118-1.337.383-.187-.002-1.397-.191-1.953.638-1.395-.166-1.836.821-1.336 1.739-.285.441-.58.877.086 1.719-.236.47-.09.976.465 1.592-.146.659.142 1.123.659 1.486-.097.9.826 1.424 1.102 1.61.106.526.326 1.021 1.38 1.295.174.784.808.917 1.421 1.083-2.028 1.178-3.768 2.729-3.755 6.535l-.297.529c-2.326 1.414-4.418 5.96-1.146 9.655.214 1.156.572 1.986.891 2.905.478 3.705 3.593 5.44 4.414 5.646 1.205.916 2.487 1.787 4.222 2.396 1.636 1.688 3.408 2.331 5.19 2.329h.079c1.781.002 3.554-.642 5.189-2.329 1.735-.608 3.018-1.479 4.223-2.396.821-.206 3.937-1.941 4.413-5.646.319-.919.678-1.749.892-2.905 3.271-3.695 1.18-8.241-1.146-9.655l-.297-.53c.012-3.805-1.729-5.356-3.756-6.534.613-.166 1.247-.3 1.421-1.084 1.055-.272 1.275-.769 1.381-1.295.276-.186 1.198-.709 1.103-1.611.517-.361.805-.826.657-1.484.557-.615.702-1.124.466-1.592.667-.842.371-1.277.087-1.719.499-.918.059-1.905-1.337-1.739-.555-.829-1.766-.64-1.953-.638-.209-.265-.486-.492-1.337-.383-.551-.498-1.167-.413-1.802-.168-.756-.596-1.256-.119-1.826.062-.912-.298-1.122.111-1.57.277-.997-.211-1.299.247-1.777.731l-.556-.011c-1.503.886-2.249 2.69-2.514 3.616-.264-.928-1.009-2.731-2.512-3.616l-.556.011c-.479-.484-.781-.942-1.778-.731-.448-.166-.657-.575-1.571-.277-.376-.119-.721-.364-1.126-.352z"/><g fill="#64DD17"><path d="M13.466 6.885c3.987 2.055 6.305 3.718 7.575 5.134-.65 2.607-4.042 2.726-5.283 2.653.254-.119.467-.26.541-.479-.311-.221-1.415-.023-2.186-.456.296-.062.435-.12.573-.339-.727-.232-1.511-.433-1.973-.817.249.003.481.055.806-.17-.652-.351-1.348-.629-1.888-1.166.337-.009.701-.004.806-.129-.596-.37-1.1-.78-1.518-1.23.472.058.671.009.786-.075-.452-.461-1.023-.85-1.294-1.421.35.121.671.168.902-.011-.154-.345-.81-.55-1.189-1.357.369.036.761.081.839 0-.172-.697-.465-1.089-.753-1.496.79-.01 1.985.004 1.931-.063l-.488-.499c.771-.207 1.561.034 2.133.213.257-.203-.005-.459-.318-.721a7.746 7.746 0 0 1 1.782.445c.286-.258-.186-.516-.413-.773 1.012.191 1.44.46 1.866.73.31-.295.018-.548-.19-.807.764.283 1.156.648 1.57 1.009.141-.19.357-.328.096-.784.542.312.95.68 1.252 1.092.335-.214.2-.506.201-.775.563.459.921.946 1.358 1.423.088-.064.165-.282.233-.626 1.344 1.303 3.242 4.586.488 5.889-2.344-1.936-5.143-3.341-8.245-4.394zM34.623 6.885c-3.986 2.055-6.305 3.718-7.574 5.134.65 2.607 4.043 2.726 5.283 2.653-.254-.119-.466-.26-.542-.479.312-.221 1.415-.023 2.186-.456-.296-.062-.434-.12-.573-.339.729-.232 1.514-.433 1.974-.817-.249.003-.481.055-.806-.17.652-.351 1.348-.629 1.889-1.166-.338-.009-.701-.004-.807-.129.598-.37 1.1-.78 1.518-1.23-.473.058-.671.009-.785-.075.451-.461 1.021-.85 1.293-1.421-.35.121-.67.168-.9-.011.152-.345.811-.55 1.188-1.357-.369.036-.76.081-.838 0 .172-.697.465-1.089.754-1.496-.789-.012-1.985.004-1.932-.063l.488-.499c-.771-.207-1.56.034-2.133.213-.258-.203.005-.459.318-.721a7.695 7.695 0 0 0-1.782.445c-.286-.258.186-.516.414-.774-1.013.191-1.44.461-1.867.731-.31-.295-.018-.548.19-.807-.763.283-1.156.648-1.57 1.008-.14-.189-.356-.327-.095-.783-.542.311-.951.68-1.252 1.092-.335-.215-.2-.506-.202-.775-.563.459-.92.946-1.358 1.423-.088-.064-.165-.282-.232-.626-1.345 1.303-3.243 4.586-.488 5.889 2.341-1.937 5.139-3.341 8.241-4.394z"/></g><g fill="#FF4081"><path d="M28.873 33.426c.014 2.433-2.113 4.414-4.75 4.428-2.638.012-4.788-1.948-4.801-4.381v-.047c-.014-2.433 2.112-4.414 4.75-4.428 2.638-.012 4.787 1.948 4.801 4.382v.046zM21.333 20.846c1.979 1.296 2.335 4.234.797 6.563-1.539 2.329-4.391 3.165-6.37 1.868s-2.335-4.235-.797-6.563c1.539-2.329 4.392-3.165 6.37-1.868zM26.676 20.61c-1.98 1.295-2.337 4.235-.798 6.563 1.539 2.33 4.391 3.166 6.369 1.869 1.979-1.297 2.337-4.234.798-6.564-1.539-2.328-4.391-3.164-6.369-1.868zM11.443 22.966c2.136-.573.721 8.838-1.017 8.066-1.912-1.539-2.528-6.044 1.017-8.066zM36.135 22.848c-2.138-.572-.722 8.839 1.016 8.066 1.913-1.539 2.529-6.043-1.016-8.066zM28.875 15.839c3.687-.624 6.756 1.567 6.632 5.565-.122 1.534-7.991-5.339-6.632-5.565zM18.687 15.72c-3.687-.621-6.755 1.57-6.631 5.567.121 1.534 7.989-5.338 6.631-5.567zM23.983 14.789c-2.2-.058-4.313 1.634-4.318 2.613-.006 1.19 1.741 2.412 4.333 2.442 2.648.019 4.337-.977 4.347-2.205.009-1.393-2.408-2.872-4.362-2.85zM24.118 39.221c1.919-.084 4.493.619 4.499 1.549.031.905-2.336 2.947-4.626 2.907-2.373.103-4.699-1.943-4.668-2.651-.036-1.042 2.889-1.852 4.795-1.805zM17.031 33.703c1.366 1.646 1.988 4.539.849 5.39-1.079.652-3.698.384-5.56-2.29-1.255-2.245-1.094-4.527-.212-5.199 1.318-.803 3.355.28 4.923 2.099zM30.932 33.183c-1.479 1.731-2.301 4.888-1.223 5.905 1.03.791 3.799.681 5.842-2.156 1.484-1.906.988-5.087.141-5.934-1.261-.972-3.069.273-4.76 2.185z"/></g></svg>